<svg width="38" height="34" viewBox="0 0 38 34" fill="none" xmlns="http://www.w3.org/2000/svg">
<g clip-path="url(#clip0_6_5)">
<path d="M32.509 7.96876C32.6416 7.96876 32.7688 7.91279 32.8626 7.81316C32.9563 7.71354 33.009 7.57841 33.009 7.43751V5.66845C33.0085 5.20705 32.8357 4.7647 32.5287 4.43844C32.2216 4.11218 31.8053 3.92864 31.371 3.92808H28.684L28.071 2.00601C28.0293 1.8753 27.9414 1.76694 27.8259 1.70388C27.7104 1.64082 27.5763 1.628 27.452 1.66814L12.899 6.36864C12.7785 6.41533 12.6795 6.50932 12.6223 6.63124C12.5651 6.75317 12.5541 6.89375 12.5915 7.02406C12.6289 7.15436 12.712 7.26446 12.8235 7.33169C12.935 7.39892 13.0665 7.41816 13.191 7.38545L27.28 2.8337L28.623 7.04651C28.6656 7.17994 28.7563 7.28994 28.8752 7.35231C28.9941 7.41467 29.1314 7.4243 29.257 7.37908C29.3826 7.33385 29.4861 7.23747 29.5448 7.11114C29.6035 6.98481 29.6126 6.83888 29.57 6.70545L29.023 4.98951H31.372C31.724 4.98951 32.01 5.29339 32.01 5.66739V7.43751C32.009 7.73076 32.233 7.96876 32.509 7.96876Z" fill="#F8F8F8"/>
<path d="M36.5 15.9366C36.3674 15.9366 36.2402 15.9926 36.1464 16.0922C36.0527 16.1919 36 16.327 36 16.4679C36 16.6088 36.0527 16.7439 36.1464 16.8435C36.2402 16.9432 36.3674 16.9991 36.5 16.9991C36.851 16.9991 37 17.1574 37 17.5304V23.9054C37 24.2783 36.851 24.4366 36.5 24.4366H28.5C28.149 24.4366 28 24.2783 28 23.9054V18.5929C28 18.2199 28.149 18.0616 28.5 18.0616H34.5C34.6326 18.0616 34.7598 18.0057 34.8536 17.906C34.9473 17.8064 35 17.6713 35 17.5304V11.1554C35 10.1874 34.411 9.56163 33.5 9.56163H3C1.767 9.56163 1 8.74669 1 7.43663C1 6.12656 1.767 5.31163 3 5.31163H8.076L5.05 6.372C4.98538 6.3918 4.92518 6.42525 4.87301 6.47034C4.82084 6.51543 4.77777 6.57125 4.74638 6.63444C4.71498 6.69763 4.6959 6.7669 4.69029 6.83811C4.68467 6.90931 4.69264 6.98099 4.7137 7.04885C4.73477 7.11671 4.7685 7.17936 4.81289 7.23304C4.85727 7.28673 4.91139 7.33035 4.97201 7.3613C5.03263 7.39224 5.0985 7.40988 5.16568 7.41314C5.23286 7.41641 5.29997 7.40525 5.363 7.38031L23.482 1.034C23.5444 1.01209 23.6021 0.977349 23.6518 0.931747C23.7016 0.886146 23.7424 0.830582 23.7719 0.768227C23.8014 0.705873 23.8191 0.637949 23.8239 0.568334C23.8287 0.49872 23.8206 0.428777 23.8 0.362501C23.7794 0.296224 23.7467 0.234911 23.7038 0.182063C23.6608 0.129215 23.6085 0.0858657 23.5499 0.0544911C23.4912 0.0231165 23.4272 0.00433076 23.3617 -0.000793536C23.2962 -0.00591783 23.2304 0.00271967 23.168 0.0246258L11.068 4.264C11.045 4.25975 11.024 4.24913 11 4.24913H3C1.206 4.24913 0 5.5305 0 7.43663V30.8116C0 32.7178 1.206 33.9991 3 33.9991H33.5C34.411 33.9991 35 33.3733 35 32.4054V27.0929C35 26.952 34.9473 26.8169 34.8536 26.7172C34.7598 26.6176 34.6326 26.5616 34.5 26.5616C34.3674 26.5616 34.2402 26.6176 34.1464 26.7172C34.0527 26.8169 34 26.952 34 27.0929V32.4054C34 32.7783 33.851 32.9366 33.5 32.9366H3C1.767 32.9366 1 32.1217 1 30.8116V9.89313C1.513 10.3532 2.192 10.6241 3 10.6241H33.5C33.851 10.6241 34 10.7824 34 11.1554V16.9991H28.5C27.589 16.9991 27 17.6249 27 18.5929V23.9054C27 24.8733 27.589 25.4991 28.5 25.4991H36.5C37.411 25.4991 38 24.8733 38 23.9054V17.5304C38 16.5624 37.411 15.9366 36.5 15.9366Z" fill="#F8F8F8"/>
<path d="M32 22.3125C32.5523 22.3125 33 21.8368 33 21.25C33 20.6632 32.5523 20.1875 32 20.1875C31.4477 20.1875 31 20.6632 31 21.25C31 21.8368 31.4477 22.3125 32 22.3125Z" fill="#F8F8F8"/>
</g>
<defs>
<clipPath id="clip0_6_5">
<rect width="38" height="34" fill="white"/>
</clipPath>
</defs>
</svg>
