<svg width="360" height="324" viewBox="0 0 360 324" fill="none" xmlns="http://www.w3.org/2000/svg">
<path fill-rule="evenodd" clip-rule="evenodd" d="M360 324L355.8 288C351.3 252 342.9 180 334.2 138C325.8 96 317.1 84 308.7 108C300 132 291.3 192 282.9 204C274.2 216 265.8 180 257.1 150C248.7 120 240 96 231.3 126C222.9 156 214.2 240 205.8 264C197.1 288 188.7 252 180 210C171.3 168 162.9 120 154.2 120C145.8 120 137.1 168 128.7 162C120 156 111.3 96 102.9 78C94.2 60 85.8 84 77.1 84C68.7 84 60 60 51.3 90C42.9 120 34.2 204 25.8 204C17.1 204 8.69998 120 4.19998 78L0 36V0H4.19998C8.69998 0 17.1 0 25.8 0C34.2 0 42.9 0 51.3 0C60 0 68.7 0 77.1 0C85.8 0 94.2 0 102.9 0C111.3 0 120 0 128.7 0C137.1 0 145.8 0 154.2 0C162.9 0 171.3 0 180 0C188.7 0 197.1 0 205.8 0C214.2 0 222.9 0 231.3 0C240 0 248.7 0 257.1 0C265.8 0 274.2 0 282.9 0C291.3 0 300 0 308.7 0C317.1 0 325.8 0 334.2 0C342.9 0 351.3 0 355.8 0H360L360 324Z" fill="black"/>
</svg>
